<?xml version="1.0" encoding="UTF-8"?>
<svg width="44px" height="44px" viewBox="0 0 44 44" version="1.1" xmlns="http://www.w3.org/2000/svg" xmlns:xlink="http://www.w3.org/1999/xlink">
    <defs>
        <circle id="path-1" cx="16" cy="16" r="16"></circle>
        <filter x="-29.7%" y="-26.6%" width="159.4%" height="159.4%" filterUnits="objectBoundingBox" id="filter-2">
            <feOffset dx="0" dy="1" in="SourceAlpha" result="shadowOffsetOuter1"></feOffset>
            <feGaussianBlur stdDeviation="3" in="shadowOffsetOuter1" result="shadowBlurOuter1"></feGaussianBlur>
            <feColorMatrix values="0 0 0 0 0   0 0 0 0 0   0 0 0 0 0  0 0 0 0.24 0" type="matrix" in="shadowBlurOuter1"></feColorMatrix>
        </filter>
    </defs>
    <g id="Reiseplanlegger-2.0" stroke="none" stroke-width="1" fill="none" fill-rule="evenodd">
        <g id="Open-Search-Copy" transform="translate(-688.000000, -237.000000)">
            <g id="Ikon-/-switch-direction-red" transform="translate(711.000000, 259.000000) rotate(-270.000000) translate(-711.000000, -259.000000) translate(695.000000, 243.000000)">
                <g id="Group-6">
                    <g id="Group" transform="translate(8.275862, 8.827586)" fill="#e0e0e0" stroke="#FFFFFF" stroke-width="0.3">
                        <polygon id="Shape-Copy-4" transform="translate(3.862069, 7.661512) scale(1, -1) rotate(-270.000000) translate(-3.862069, -7.661512) " points="9.38057526 4.35116692 11.5235807 4.35116692 4.90289106 10.9718566 3.35806347 9.42702899 6.41548667 6.36105293 -3.79944279 6.36105293 -3.79944279 4.35116692"></polygon>
                        <polygon id="Shape-Copy-5" transform="translate(12.137931, 7.661512) scale(-1, 1) rotate(-270.000000) translate(-12.137931, -7.661512) " points="17.6564373 4.35116692 19.7994428 4.35116692 13.1787531 10.9718566 11.6339255 9.42702899 14.6913487 6.36105293 4.47641928 6.36105293 4.47641928 4.35116692"></polygon>
                    </g>
                </g>
            </g>
        </g>
    </g>
</svg>
