<?xml version="1.0" encoding="UTF-8"?>
<svg width="37px" height="24px" viewBox="0 0 37 24" version="1.1" xmlns="http://www.w3.org/2000/svg" xmlns:xlink="http://www.w3.org/1999/xlink">
    <!-- Generator: Sketch 49 (51002) - http://www.bohemiancoding.com/sketch -->
    <title>Group</title>
    <desc>Created with Sketch.</desc>
    <defs></defs>
    <g id="Reiseplanlegger-2.0" stroke="none" stroke-width="1" fill="none" fill-rule="evenodd">
        <g id="Open-Search-Copy" transform="translate(-643.000000, -246.000000)" fill-rule="nonzero">
            <g id="Group" transform="translate(661.500000, 258.000000) scale(-1, 1) translate(-661.500000, -258.000000) translate(643.000000, 246.000000)">
                <polygon id="Shape" fill="#1E1E1C" transform="translate(18.790000, 22.224000) scale(-1, 1) translate(-18.790000, -22.224000) " points="34.654 23.424 0.58 23.424 0.58 21.024 37 21.024"></polygon>
                <path d="M27.862,21 C27.2220229,13.7741494 21.1721335,8.23188837 13.918,8.226 L0.58,8.226 L1.576,10.626 L13.918,10.626 C20.3113096,10.6325774 25.4961792,15.8067178 25.516,22.2 L25.516,23.4 L27.862,21 Z" id="Shape" fill="#E1251B" transform="translate(14.221000, 15.813000) scale(-1, 1) translate(-14.221000, -15.813000) "></path>
                <polygon id="Shape" fill="#1991A4" transform="translate(24.802000, 5.310000) scale(-1, 1) translate(-24.802000, -5.310000) " points="26.524 3.438 23.08 0 21.388 1.698 24.826 5.136 21.742 8.22 22.738 10.62 26.524 6.834 28.216 5.136"></polygon>
                <polygon id="Shape" fill="#E1251B" transform="translate(33.241000, 9.420000) scale(-1, 1) translate(-33.241000, -9.420000) " points="29.482 8.22 36.01 8.22 37 10.62 29.482 10.62"></polygon>
            </g>
        </g>
    </g>
</svg>